<svg width="18" height="18" viewBox="0 0 18 18" fill="none" xmlns="http://www.w3.org/2000/svg">
<path d="M3.27259 14.7277C2.06344 13.5185 2.06344 11.5528 3.27259 10.3436L6.10102 7.51519L4.75752 6.17168L1.92909 9.00011C-0.0225261 10.9517 -0.0225261 14.1196 1.92909 16.0712C3.8807 18.0228 7.04854 18.0228 9.00016 16.0712L11.8286 13.2428L10.4851 11.8992L7.65665 14.7277C6.4475 15.9368 4.48174 15.9368 3.27259 14.7277ZM6.87884 12.5356L12.5357 6.87879L11.1215 5.46458L5.46462 11.1214L6.87884 12.5356ZM9.00016 1.92904L6.17173 4.75747L7.51523 6.10097L10.3437 3.27255C11.5528 2.06339 13.5186 2.06339 14.7277 3.27255C15.9369 4.4817 15.9369 6.44746 14.7277 7.65661L11.8993 10.485L13.2428 11.8285L16.0712 9.00011C18.0228 7.0485 18.0228 3.88066 16.0712 1.92904C14.1196 -0.0225717 10.9518 -0.0225718 9.00016 1.92904Z" fill="#828282"/>
</svg>
