<svg width="40" height="40" viewBox="0 0 40 40" fill="none" xmlns="http://www.w3.org/2000/svg">
<path d="M24.4998 10.5C24.1944 10.8116 24.0233 11.2304 24.0233 11.6667C24.0233 12.1029 24.1944 12.5218 24.4998 12.8333L27.1664 15.5C27.478 15.8054 27.8968 15.9764 28.3331 15.9764C28.7693 15.9764 29.1882 15.8054 29.4998 15.5L35.7831 9.21667C36.6211 11.0687 36.8749 13.1321 36.5105 15.1319C36.1461 17.1318 35.1809 18.9731 33.7436 20.4105C32.3062 21.8479 30.4649 22.8131 28.465 23.1774C26.4651 23.5418 24.4017 23.2881 22.5498 22.45L11.0331 33.9667C10.3701 34.6297 9.47077 35.0022 8.53309 35.0022C7.59541 35.0022 6.69613 34.6297 6.03309 33.9667C5.37005 33.3036 4.99756 32.4044 4.99756 31.4667C4.99756 30.529 5.37005 29.6297 6.03309 28.9667L17.5498 17.45C16.7117 15.598 16.458 13.5346 16.8223 11.5348C17.1867 9.53491 18.1519 7.6936 19.5893 6.25621C21.0267 4.81882 22.868 3.85362 24.8678 3.48924C26.8677 3.12487 28.9311 3.37861 30.7831 4.21667L24.5164 10.4833L24.4998 10.5Z" stroke="#D81C23" stroke-width="2" stroke-linecap="round" stroke-linejoin="round"/>
</svg>
